# xmcd
#
# Track frame offsets: 
#        150
#        6945
#        18200
#        31880
#        43805
#        53333
#        63483
#        70083
#        78033
#        87173
#        95343
#        107583
#        115430
#        130628
#        138180
#        152425
#        161135
#        169470
#        180870
#        192678
#
# Disc length: 2676 seconds
#
# Revision: 1
# Processed by: cddbd v1.5.2PL0 Copyright (c) Steve Scherf et al.
# Submitted via: ExactAudioCopy v1.3
#
DISCID=f60a7214
DTITLE=Jim Reeves - The Immortal Jim Reeves - Live Broadcast CD2
DYEAR=1996
DGENRE=Country
TTITLE0=Have I Told You Lately That I LOve You?
TTITLE1=Just Call Me Lonesome
TTITLE2=How's The World Treating You?
TTITLE3=If Heartaches Are The Fasion
TTITLE4=Home
TTITLE5=Dear Hearts And Gentle People
TTITLE6=I'm Beginning To Forget You
TTITLE7=Roly Poly
TTITLE8=The Wind Up
TTITLE9=Sweet Evening Breeze
TTITLE10=Your Old Love Letters
TTITLE11=Till The End Of The World
TTITLE12=Making Believe
TTITLE13=The Oklahoma Hills
TTITLE14=The Highway To Nowhere
TTITLE15=If You Were Mine
TTITLE16=Everywhere You Go
TTITLE17=I Love You More
TTITLE18=I've Lived A Lot In My Time
TTITLE19=Waiting For A Train
EXTD=
EXTT0=
EXTT1=
EXTT2=
EXTT3=
EXTT4=
EXTT5=
EXTT6=
EXTT7=
EXTT8=
EXTT9=
EXTT10=
EXTT11=
EXTT12=
EXTT13=
EXTT14=
EXTT15=
EXTT16=
EXTT17=
EXTT18=
EXTT19=
PLAYORDER=
